<mxfile host="Electron" modified="2024-06-05T22:52:33.740Z" agent="Mozilla/5.0 (X11; Linux x86_64) AppleWebKit/537.36 (KHTML, like Gecko) draw.io/24.4.8 Chrome/124.0.6367.207 Electron/30.0.6 Safari/537.36" etag="EHg88aYt2TaLj743vy7s" version="24.3.1" type="device">
  <diagram name="PÃ¡gina-1" id="m3OHUJk2A6lblHHqhCZ5">
    <mxGraphModel dx="1390" dy="795" grid="1" gridSize="10" guides="1" tooltips="1" connect="1" arrows="1" fold="1" page="1" pageScale="1" pageWidth="827" pageHeight="1169" math="0" shadow="0">
      <root>
        <mxCell id="0" />
        <mxCell id="1" parent="0" />
        <mxCell id="R3QwsEBxaPi7MsHxChWB-3" value="start_click" style="rounded=1;whiteSpace=wrap;html=1;absoluteArcSize=1;arcSize=14;strokeWidth=2;" parent="1" vertex="1">
          <mxGeometry x="320" y="180" width="110" height="50" as="geometry" />
        </mxCell>
        <mxCell id="R3QwsEBxaPi7MsHxChWB-6" style="edgeStyle=orthogonalEdgeStyle;rounded=0;orthogonalLoop=1;jettySize=auto;html=1;exitX=1;exitY=0.5;exitDx=0;exitDy=0;exitPerimeter=0;entryX=1;entryY=0.5;entryDx=0;entryDy=0;" parent="1" source="R3QwsEBxaPi7MsHxChWB-4" target="R3QwsEBxaPi7MsHxChWB-3" edge="1">
          <mxGeometry relative="1" as="geometry" />
        </mxCell>
        <mxCell id="R3QwsEBxaPi7MsHxChWB-7" value="No" style="edgeLabel;html=1;align=center;verticalAlign=middle;resizable=0;points=[];" parent="R3QwsEBxaPi7MsHxChWB-6" vertex="1" connectable="0">
          <mxGeometry x="-0.1022" y="-5" relative="1" as="geometry">
            <mxPoint x="2" as="offset" />
          </mxGeometry>
        </mxCell>
        <mxCell id="R3QwsEBxaPi7MsHxChWB-9" style="edgeStyle=orthogonalEdgeStyle;rounded=0;orthogonalLoop=1;jettySize=auto;html=1;exitX=0.5;exitY=1;exitDx=0;exitDy=0;exitPerimeter=0;entryX=0.5;entryY=0;entryDx=0;entryDy=0;" parent="1" source="R3QwsEBxaPi7MsHxChWB-4" target="R3QwsEBxaPi7MsHxChWB-8" edge="1">
          <mxGeometry relative="1" as="geometry" />
        </mxCell>
        <mxCell id="R3QwsEBxaPi7MsHxChWB-10" value="Yes" style="edgeLabel;html=1;align=center;verticalAlign=middle;resizable=0;points=[];" parent="R3QwsEBxaPi7MsHxChWB-9" vertex="1" connectable="0">
          <mxGeometry x="0.0612" y="4" relative="1" as="geometry">
            <mxPoint x="8" as="offset" />
          </mxGeometry>
        </mxCell>
        <mxCell id="R3QwsEBxaPi7MsHxChWB-4" value="start = &#39;1&#39; ?" style="strokeWidth=2;html=1;shape=mxgraph.flowchart.decision;whiteSpace=wrap;" parent="1" vertex="1">
          <mxGeometry x="310" y="283" width="130" height="67" as="geometry" />
        </mxCell>
        <mxCell id="R3QwsEBxaPi7MsHxChWB-5" style="edgeStyle=orthogonalEdgeStyle;rounded=0;orthogonalLoop=1;jettySize=auto;html=1;exitX=0.5;exitY=1;exitDx=0;exitDy=0;entryX=0.5;entryY=0;entryDx=0;entryDy=0;entryPerimeter=0;" parent="1" source="R3QwsEBxaPi7MsHxChWB-3" target="R3QwsEBxaPi7MsHxChWB-4" edge="1">
          <mxGeometry relative="1" as="geometry" />
        </mxCell>
        <mxCell id="R3QwsEBxaPi7MsHxChWB-8" value="wait_unclick" style="rounded=1;whiteSpace=wrap;html=1;absoluteArcSize=1;arcSize=14;strokeWidth=2;" parent="1" vertex="1">
          <mxGeometry x="320" y="398" width="110" height="50" as="geometry" />
        </mxCell>
        <mxCell id="R3QwsEBxaPi7MsHxChWB-13" style="edgeStyle=orthogonalEdgeStyle;rounded=0;orthogonalLoop=1;jettySize=auto;html=1;exitX=1;exitY=0.5;exitDx=0;exitDy=0;exitPerimeter=0;entryX=1;entryY=0.5;entryDx=0;entryDy=0;" parent="1" source="R3QwsEBxaPi7MsHxChWB-11" target="R3QwsEBxaPi7MsHxChWB-8" edge="1">
          <mxGeometry relative="1" as="geometry" />
        </mxCell>
        <mxCell id="R3QwsEBxaPi7MsHxChWB-14" value="No" style="edgeLabel;html=1;align=center;verticalAlign=middle;resizable=0;points=[];" parent="R3QwsEBxaPi7MsHxChWB-13" vertex="1" connectable="0">
          <mxGeometry x="-0.109" y="-7" relative="1" as="geometry">
            <mxPoint x="4" y="1" as="offset" />
          </mxGeometry>
        </mxCell>
        <mxCell id="R3QwsEBxaPi7MsHxChWB-17" style="edgeStyle=orthogonalEdgeStyle;rounded=0;orthogonalLoop=1;jettySize=auto;html=1;exitX=0.5;exitY=1;exitDx=0;exitDy=0;exitPerimeter=0;" parent="1" source="R3QwsEBxaPi7MsHxChWB-11" target="R3QwsEBxaPi7MsHxChWB-15" edge="1">
          <mxGeometry relative="1" as="geometry" />
        </mxCell>
        <mxCell id="R3QwsEBxaPi7MsHxChWB-18" value="Yes" style="edgeLabel;html=1;align=center;verticalAlign=middle;resizable=0;points=[];" parent="R3QwsEBxaPi7MsHxChWB-17" vertex="1" connectable="0">
          <mxGeometry x="-0.0833" relative="1" as="geometry">
            <mxPoint x="10" as="offset" />
          </mxGeometry>
        </mxCell>
        <mxCell id="R3QwsEBxaPi7MsHxChWB-11" value="start = &#39;0&#39; ?" style="strokeWidth=2;html=1;shape=mxgraph.flowchart.decision;whiteSpace=wrap;" parent="1" vertex="1">
          <mxGeometry x="310" y="500" width="130" height="67" as="geometry" />
        </mxCell>
        <mxCell id="R3QwsEBxaPi7MsHxChWB-12" style="edgeStyle=orthogonalEdgeStyle;rounded=0;orthogonalLoop=1;jettySize=auto;html=1;exitX=0.5;exitY=1;exitDx=0;exitDy=0;entryX=0.5;entryY=0;entryDx=0;entryDy=0;entryPerimeter=0;" parent="1" source="R3QwsEBxaPi7MsHxChWB-8" target="R3QwsEBxaPi7MsHxChWB-11" edge="1">
          <mxGeometry relative="1" as="geometry" />
        </mxCell>
        <mxCell id="R3QwsEBxaPi7MsHxChWB-15" value="s_start" style="rounded=1;whiteSpace=wrap;html=1;absoluteArcSize=1;arcSize=14;strokeWidth=2;" parent="1" vertex="1">
          <mxGeometry x="320" y="615" width="110" height="50" as="geometry" />
        </mxCell>
        <mxCell id="Bcg53xSsb2aE_cyZoOUk-5" style="edgeStyle=orthogonalEdgeStyle;rounded=0;orthogonalLoop=1;jettySize=auto;html=1;exitX=1;exitY=0.5;exitDx=0;exitDy=0;entryX=0;entryY=0.5;entryDx=0;entryDy=0;" parent="1" source="R3QwsEBxaPi7MsHxChWB-19" target="R3QwsEBxaPi7MsHxChWB-21" edge="1">
          <mxGeometry relative="1" as="geometry">
            <Array as="points">
              <mxPoint x="540" y="695" />
              <mxPoint x="540" y="205" />
            </Array>
          </mxGeometry>
        </mxCell>
        <mxCell id="R3QwsEBxaPi7MsHxChWB-19" value="Index = 0" style="shape=parallelogram;html=1;strokeWidth=2;perimeter=parallelogramPerimeter;whiteSpace=wrap;rounded=1;arcSize=12;size=0.23;" parent="1" vertex="1">
          <mxGeometry x="322" y="665" width="100" height="60" as="geometry" />
        </mxCell>
        <mxCell id="R3QwsEBxaPi7MsHxChWB-21" value="s_check_tx" style="rounded=1;whiteSpace=wrap;html=1;absoluteArcSize=1;arcSize=14;strokeWidth=2;" parent="1" vertex="1">
          <mxGeometry x="656" y="180" width="110" height="50" as="geometry" />
        </mxCell>
        <mxCell id="R3QwsEBxaPi7MsHxChWB-23" value="r_TX_DV = 0" style="shape=parallelogram;html=1;strokeWidth=2;perimeter=parallelogramPerimeter;whiteSpace=wrap;rounded=1;arcSize=12;size=0.23;" parent="1" vertex="1">
          <mxGeometry x="659" y="230" width="100" height="60" as="geometry" />
        </mxCell>
        <mxCell id="R3QwsEBxaPi7MsHxChWB-27" style="edgeStyle=orthogonalEdgeStyle;rounded=0;orthogonalLoop=1;jettySize=auto;html=1;exitX=0.5;exitY=1;exitDx=0;exitDy=0;exitPerimeter=0;entryX=0.5;entryY=0;entryDx=0;entryDy=0;" parent="1" source="R3QwsEBxaPi7MsHxChWB-24" target="R3QwsEBxaPi7MsHxChWB-26" edge="1">
          <mxGeometry relative="1" as="geometry" />
        </mxCell>
        <mxCell id="R3QwsEBxaPi7MsHxChWB-28" value="Yes" style="edgeLabel;html=1;align=center;verticalAlign=middle;resizable=0;points=[];" parent="R3QwsEBxaPi7MsHxChWB-27" vertex="1" connectable="0">
          <mxGeometry x="-0.1852" y="5" relative="1" as="geometry">
            <mxPoint x="7" as="offset" />
          </mxGeometry>
        </mxCell>
        <mxCell id="Bcg53xSsb2aE_cyZoOUk-1" style="edgeStyle=orthogonalEdgeStyle;rounded=0;orthogonalLoop=1;jettySize=auto;html=1;exitX=0;exitY=0.5;exitDx=0;exitDy=0;exitPerimeter=0;entryX=1;entryY=0.5;entryDx=0;entryDy=0;" parent="1" source="R3QwsEBxaPi7MsHxChWB-24" target="R3QwsEBxaPi7MsHxChWB-3" edge="1">
          <mxGeometry relative="1" as="geometry">
            <Array as="points">
              <mxPoint x="500" y="379" />
              <mxPoint x="500" y="205" />
            </Array>
          </mxGeometry>
        </mxCell>
        <mxCell id="Bcg53xSsb2aE_cyZoOUk-2" value="No" style="edgeLabel;html=1;align=center;verticalAlign=middle;resizable=0;points=[];" parent="Bcg53xSsb2aE_cyZoOUk-1" vertex="1" connectable="0">
          <mxGeometry x="-0.7041" y="-2" relative="1" as="geometry">
            <mxPoint as="offset" />
          </mxGeometry>
        </mxCell>
        <mxCell id="R3QwsEBxaPi7MsHxChWB-24" value="index &amp;lt;= lenght ?" style="strokeWidth=2;html=1;shape=mxgraph.flowchart.decision;whiteSpace=wrap;" parent="1" vertex="1">
          <mxGeometry x="621" y="338" width="176" height="82" as="geometry" />
        </mxCell>
        <mxCell id="R3QwsEBxaPi7MsHxChWB-25" style="edgeStyle=orthogonalEdgeStyle;rounded=0;orthogonalLoop=1;jettySize=auto;html=1;exitX=0.5;exitY=1;exitDx=0;exitDy=0;entryX=0.5;entryY=0;entryDx=0;entryDy=0;entryPerimeter=0;" parent="1" source="R3QwsEBxaPi7MsHxChWB-23" target="R3QwsEBxaPi7MsHxChWB-24" edge="1">
          <mxGeometry relative="1" as="geometry" />
        </mxCell>
        <mxCell id="R3QwsEBxaPi7MsHxChWB-26" value="s_prepare" style="rounded=1;whiteSpace=wrap;html=1;absoluteArcSize=1;arcSize=14;strokeWidth=2;" parent="1" vertex="1">
          <mxGeometry x="654" y="474" width="110" height="50" as="geometry" />
        </mxCell>
        <mxCell id="R3QwsEBxaPi7MsHxChWB-34" style="edgeStyle=orthogonalEdgeStyle;rounded=0;orthogonalLoop=1;jettySize=auto;html=1;exitX=0.5;exitY=1;exitDx=0;exitDy=0;entryX=0.5;entryY=0;entryDx=0;entryDy=0;" parent="1" source="R3QwsEBxaPi7MsHxChWB-32" target="R3QwsEBxaPi7MsHxChWB-33" edge="1">
          <mxGeometry relative="1" as="geometry" />
        </mxCell>
        <mxCell id="R3QwsEBxaPi7MsHxChWB-32" value="r_TX_BYTE = command(index)&lt;div&gt;index = index + 1&lt;/div&gt;" style="shape=parallelogram;html=1;strokeWidth=2;perimeter=parallelogramPerimeter;whiteSpace=wrap;rounded=1;arcSize=12;size=0.23;" parent="1" vertex="1">
          <mxGeometry x="540" y="525" width="312" height="55" as="geometry" />
        </mxCell>
        <mxCell id="R3QwsEBxaPi7MsHxChWB-33" value="s_tx_send" style="rounded=1;whiteSpace=wrap;html=1;absoluteArcSize=1;arcSize=14;strokeWidth=2;" parent="1" vertex="1">
          <mxGeometry x="1075" y="220" width="110" height="50" as="geometry" />
        </mxCell>
        <mxCell id="R3QwsEBxaPi7MsHxChWB-37" style="edgeStyle=orthogonalEdgeStyle;rounded=0;orthogonalLoop=1;jettySize=auto;html=1;exitX=0.5;exitY=1;exitDx=0;exitDy=0;entryX=0.5;entryY=0;entryDx=0;entryDy=0;" parent="1" source="R3QwsEBxaPi7MsHxChWB-35" target="R3QwsEBxaPi7MsHxChWB-36" edge="1">
          <mxGeometry relative="1" as="geometry" />
        </mxCell>
        <mxCell id="R3QwsEBxaPi7MsHxChWB-35" value="r_TX_DV = 1" style="shape=parallelogram;html=1;strokeWidth=2;perimeter=parallelogramPerimeter;whiteSpace=wrap;rounded=1;arcSize=12;size=0.23;" parent="1" vertex="1">
          <mxGeometry x="1078" y="269" width="100" height="60" as="geometry" />
        </mxCell>
        <mxCell id="R3QwsEBxaPi7MsHxChWB-36" value="s_wait_end" style="rounded=1;whiteSpace=wrap;html=1;absoluteArcSize=1;arcSize=14;strokeWidth=2;" parent="1" vertex="1">
          <mxGeometry x="1073" y="374" width="110" height="50" as="geometry" />
        </mxCell>
        <mxCell id="R3QwsEBxaPi7MsHxChWB-41" style="edgeStyle=orthogonalEdgeStyle;rounded=0;orthogonalLoop=1;jettySize=auto;html=1;exitX=0.5;exitY=1;exitDx=0;exitDy=0;" parent="1" source="R3QwsEBxaPi7MsHxChWB-38" edge="1">
          <mxGeometry relative="1" as="geometry">
            <mxPoint x="1125" y="508" as="targetPoint" />
          </mxGeometry>
        </mxCell>
        <mxCell id="R3QwsEBxaPi7MsHxChWB-38" value="r_TX_DV = 0" style="shape=parallelogram;html=1;strokeWidth=2;perimeter=parallelogramPerimeter;whiteSpace=wrap;rounded=1;arcSize=12;size=0.23;" parent="1" vertex="1">
          <mxGeometry x="1075" y="423" width="100" height="60" as="geometry" />
        </mxCell>
        <mxCell id="R3QwsEBxaPi7MsHxChWB-46" style="edgeStyle=orthogonalEdgeStyle;rounded=0;orthogonalLoop=1;jettySize=auto;html=1;exitX=0;exitY=0.5;exitDx=0;exitDy=0;exitPerimeter=0;entryX=0;entryY=0.5;entryDx=0;entryDy=0;" parent="1" source="R3QwsEBxaPi7MsHxChWB-40" target="R3QwsEBxaPi7MsHxChWB-36" edge="1">
          <mxGeometry relative="1" as="geometry" />
        </mxCell>
        <mxCell id="R3QwsEBxaPi7MsHxChWB-47" value="No" style="edgeLabel;html=1;align=center;verticalAlign=middle;resizable=0;points=[];" parent="R3QwsEBxaPi7MsHxChWB-46" vertex="1" connectable="0">
          <mxGeometry x="-0.4714" y="1" relative="1" as="geometry">
            <mxPoint x="-17" as="offset" />
          </mxGeometry>
        </mxCell>
        <mxCell id="ox-HuxJluZYFErU9u21o-1" style="edgeStyle=orthogonalEdgeStyle;rounded=0;orthogonalLoop=1;jettySize=auto;html=1;exitX=1;exitY=0.5;exitDx=0;exitDy=0;exitPerimeter=0;entryX=0.5;entryY=0;entryDx=0;entryDy=0;" edge="1" parent="1" source="R3QwsEBxaPi7MsHxChWB-40" target="R3QwsEBxaPi7MsHxChWB-21">
          <mxGeometry relative="1" as="geometry" />
        </mxCell>
        <mxCell id="ox-HuxJluZYFErU9u21o-2" value="Yes" style="edgeLabel;html=1;align=center;verticalAlign=middle;resizable=0;points=[];" vertex="1" connectable="0" parent="ox-HuxJluZYFErU9u21o-1">
          <mxGeometry x="-0.0209" y="2" relative="1" as="geometry">
            <mxPoint x="66" y="357" as="offset" />
          </mxGeometry>
        </mxCell>
        <mxCell id="R3QwsEBxaPi7MsHxChWB-40" value="w_TX_DONE = 1 ?" style="strokeWidth=2;html=1;shape=mxgraph.flowchart.decision;whiteSpace=wrap;" parent="1" vertex="1">
          <mxGeometry x="1040" y="512" width="176" height="82" as="geometry" />
        </mxCell>
      </root>
    </mxGraphModel>
  </diagram>
</mxfile>
